<svg id="Layer_1" data-name="Layer 1" xmlns="http://www.w3.org/2000/svg" viewBox="0 0 468.56 143.12"><defs><style>.cls-1{fill:#fff;}.cls-2{fill:#fff957;}.cls-3{fill:#ffb84e;}.cls-4{fill:#40d2d3;}.cls-5{fill:#ffdba1;}.cls-6{fill:#ff2da4;}.cls-7{fill:#fee503;}.cls-8{fill:#0049aa;}.cls-9{fill:#e6edee;}</style></defs><path id="Trazado_48" data-name="Trazado 48" class="cls-1" d="M539.93-984.19a42.9,42.9,0,0,0-30.06-12.1c-11.33,0-21.47,4.09-30.14,12.14-.55.5-1.08,1-1.6,1.56a16,16,0,0,0-7.71-9.38,21,21,0,0,0-6.73-2.37l-.74-.1-.95-.09a33.18,33.18,0,0,0-.92-7.75,11.26,11.26,0,0,0-.34-1.17c-1.6-4.54-6.39-12.17-20.49-12.17-3.48,0-14.06,0-19,8.66a19,19,0,0,0-1.93,4.17c0-1.23-.11-2.45-.24-3.65,0-.26-.06-.51-.1-.76a20.81,20.81,0,0,0-2.28-6.59c-3.21-6.26-9.68-9.43-19.22-9.43-12,0-17.22,5.13-19.43,9.4a21.13,21.13,0,0,0-2.21,6.64c0,.2-.06.41-.09.62a46.67,46.67,0,0,0-.23,5.16,45.49,45.49,0,0,0,.24,5.22c0,.24,0,.47.09.7a21.3,21.3,0,0,0,2.24,6.63,15.41,15.41,0,0,0,1,1.65c-.24.34-.46.68-.67,1l-.08-.07-.43-.31q-1.23-.87-3.45-2.34l-.29-.19-1.84-1.15c-.25-.16-.5-.3-.77-.44A40.19,40.19,0,0,0,363.1-994a42.37,42.37,0,0,0-11.69-1.64c-9.91,0-19.25,3.43-27.75,10.18a39.88,39.88,0,0,0-4.72,4.47v-15.34a11.76,11.76,0,0,0-1.76-6.19l-6.05-11.89a15.51,15.51,0,0,0-20.1-7.56,15.27,15.27,0,0,0-7.75,7.48l-6,11.82a11.78,11.78,0,0,0-1.83,6.34v13.59a41.69,41.69,0,0,0-8.16-6.33c-9.77-6-19.41-7.74-28.67-5.26a32.54,32.54,0,0,0-11,5.14c-3.48-.63-7.55-.28-12.65,1.09a27.67,27.67,0,0,0-6.43,2.56l0,0a16.68,16.68,0,0,0-10.5-8.3l-.12,0a35.88,35.88,0,0,0-9.74-1,23.87,23.87,0,0,0-10.85,2.42l-.21-.08a29.74,29.74,0,0,0-11.59-2.23c-10.13,0-19.31,4.29-27.28,12.67a42.5,42.5,0,0,0-9.73,15.89v-35a47.35,47.35,0,0,0-.24-5.32c0-.23-.05-.45-.08-.67a21.1,21.1,0,0,0-2.47-7.05c-3.4-6-9.81-9.13-19.06-9.13-9.67,0-16.22,3.2-19.47,9.48l-.1.2a22.44,22.44,0,0,0-2.06,6.44c0,.21-.07.43-.09.65a46.29,46.29,0,0,0-.24,5.26v54.72c0,10.4,1.55,18.17,4.73,23.73,3.68,6.58,10.54,10.56,20.4,11.84a75.46,75.46,0,0,0,9.14.64c5.77,0,10-1.07,13.35-3.38a16.15,16.15,0,0,0,6.26-9.25c7.85,8.16,16.8,12.3,26.6,12.3a33.9,33.9,0,0,0,12.48-2.2c3.21,1.49,7.26,2.2,12.6,2.2,11,0,16-5,18.29-9.2.07-.12.13-.24.19-.36a22,22,0,0,0,1.7-4.65L218-896.89a45.18,45.18,0,0,0,1.6,5c.09.24.19.47.3.7a20.63,20.63,0,0,0,4.1,5.9,16.84,16.84,0,0,0,11.79,4.93H236a30.92,30.92,0,0,0,8.55-1.2,30.74,30.74,0,0,0,8.3-3.42,16.83,16.83,0,0,0,7.63-10.38,21.25,21.25,0,0,0,.53-7c0-.26-.06-.52-.1-.77a45.1,45.1,0,0,0-1.12-5.13l-1.58-5.88c.6-.13,1.2-.28,1.81-.44a32.72,32.72,0,0,0,16.15-10.17A18.77,18.77,0,0,0,294-910.82h6.37c8.65,0,15.94-6.23,18-14.64a39.31,39.31,0,0,0,5.27,5.13l.13.1c8.69,6.78,18.07,10.22,27.87,10.22,8.66,0,16.24-2.19,22.56-6.51a34,34,0,0,0,4.09-3c3.37,5.9,9.77,8.88,19,8.88,9.56,0,16.05-3.1,19.25-9.17a21.12,21.12,0,0,0,2.36-6.72c0-.26.08-.51.1-.76a46.19,46.19,0,0,0,.24-5.26v-2.93h0c1.5,6.95,4.6,12.51,9.22,16.53,6.33,5.51,15,8.31,25.86,8.32H455a44.92,44.92,0,0,0,4.64-.24l.64-.09a22.23,22.23,0,0,0,6.45-2.08c4.89-2.44,8-6.76,9.17-12.89a44.51,44.51,0,0,0,13.54,11.17,43.53,43.53,0,0,0,20.35,5.15,44.75,44.75,0,0,0,20.05-4.8,42.93,42.93,0,0,0,16.55-15,41.5,41.5,0,0,0,6.86-23.51C553.22-965.43,548.74-976,539.93-984.19Z" transform="translate(-84.68 1023.45)"/><g id="Grupo_488" data-name="Grupo 488"><path id="Trazado_10" data-name="Trazado 10" class="cls-2" d="M96.52-1001.49a33,33,0,0,1,.17-4,10.56,10.56,0,0,1,1-3q1.6-3.11,9-3.1,7,0,8.75,3.1a9.09,9.09,0,0,1,1.09,3.11,34,34,0,0,1,.18,4v53.28c0,2.77.23,4.51.69,5.24s1.47,1.09,3.05,1.09a18.62,18.62,0,0,1,3.16.18,5.82,5.82,0,0,1,2,1q2.3,1.5,2.3,8.17,0,7.24-2.3,8.86-3,2.07-14.27.69-8.86-1.15-11.51-5.87-3.22-5.64-3.22-18Z" transform="translate(-84.68 1023.45)"/><path id="Trazado_11" data-name="Trazado 11" class="cls-3" d="M179.26-976.64q.69-6.43,9.09-6.44a23.8,23.8,0,0,1,6.67.69,4.81,4.81,0,0,1,3,2.42,9.93,9.93,0,0,1,1,3.05,35,35,0,0,1,.17,4v40.27a35,35,0,0,1-.17,4,10.56,10.56,0,0,1-1,3.05c-1.08,2-3.7,3-7.88,3s-7-.52-8.4-1.55a6.18,6.18,0,0,1-2.48-4.54q-4.26,6.09-14.21,6.1t-18.47-9.1a30.28,30.28,0,0,1,.06-42.17q8.56-9,18.81-9a18,18,0,0,1,7.14,1.38,16.22,16.22,0,0,1,4.49,2.59A16.59,16.59,0,0,1,179.26-976.64ZM158.31-952.7a9.5,9.5,0,0,0,3,6.85,9.77,9.77,0,0,0,7.25,3.05,9.17,9.17,0,0,0,7.08-3.11,10,10,0,0,0,2.82-6.84,10.65,10.65,0,0,0-2.7-7,9,9,0,0,0-7.25-3.22,9.3,9.3,0,0,0-7.36,3.22A10.39,10.39,0,0,0,158.31-952.7Z" transform="translate(-84.68 1023.45)"/><path id="Trazado_12" data-name="Trazado 12" class="cls-4" d="M229.43-899.86,212-964.78a31.12,31.12,0,0,1-.84-3.83,9.36,9.36,0,0,1,.2-3c.5-2.28,2.71-3.94,6.64-5s6.72-1.26,8.35-.63a6.21,6.21,0,0,1,3.57,3.75q2.67-6.91,11.73-9.34t19.48,4a29.53,29.53,0,0,1,10.72,39.78Q266.11-928.4,257-926t-14.6-1.57l6,22.46a31,31,0,0,1,.85,3.82,9.51,9.51,0,0,1-.24,3.1,4.84,4.84,0,0,1-2.22,3,18.41,18.41,0,0,1-5.27,2.13,18.92,18.92,0,0,1-5.69.81,4.89,4.89,0,0,1-3.48-1.45,8.73,8.73,0,0,1-1.75-2.51A32.3,32.3,0,0,1,229.43-899.86Zm8-58.26a10.26,10.26,0,0,0-.8,7.24,9.91,9.91,0,0,0,4.36,5.8,8.81,8.81,0,0,0,7.46,1.16,9.62,9.62,0,0,0,6.12-4.74,9.47,9.47,0,0,0,1.07-7.31,9.85,9.85,0,0,0-4.44-5.9,9.24,9.24,0,0,0-7.74-1.09,8.83,8.83,0,0,0-6,4.84Z" transform="translate(-84.68 1023.45)"/><path id="Trazado_14" data-name="Trazado 14" class="cls-3" d="M341.05-952.75a9.34,9.34,0,0,0,3.23,7.59,10.45,10.45,0,0,0,6.84,2.7,11.85,11.85,0,0,0,6.79-2.13q3.16-2.13,5.12-2.13,3.45,0,8.4,6.1c1.77,2.23,2.65,4.22,2.65,6q0,4.36-6.33,8.17-6.56,4.59-16.11,4.6-10.69,0-20.6-7.71a27.32,27.32,0,0,1-7.71-9.84,30.55,30.55,0,0,1-3-13.58,29.79,29.79,0,0,1,3-13.47,27.55,27.55,0,0,1,7.71-9.72q9.56-7.59,20.37-7.6a30.6,30.6,0,0,1,8.51,1.21,28.23,28.23,0,0,1,6.1,2.36l1.84,1.15c1.39.92,2.46,1.65,3.23,2.19q3,2.29,3,5.24a12.43,12.43,0,0,1-2.42,6.62q-4.14,6.33-7.94,6.32-2.19,0-6.21-2.53a8.33,8.33,0,0,0-5.93-1.95,11.08,11.08,0,0,0-7.19,2.76A9.41,9.41,0,0,0,341.05-952.75Z" transform="translate(-84.68 1023.45)"/><path id="Trazado_15" data-name="Trazado 15" class="cls-4" d="M406.25-994.29a4.93,4.93,0,0,1-3.05,2.36,24.85,24.85,0,0,1-11.63,0,4.86,4.86,0,0,1-3-2.42,10.11,10.11,0,0,1-1-3,35.15,35.15,0,0,1-.17-4,35,35,0,0,1,.17-4,9.27,9.27,0,0,1,1-2.94q1.61-3.11,9-3.1c4.83,0,7.75,1,8.74,3.1a9.29,9.29,0,0,1,1.09,3,33,33,0,0,1,.18,4,32.87,32.87,0,0,1-.18,4A9.37,9.37,0,0,1,406.25-994.29Zm-18.94,21.34a33,33,0,0,1,.18-4,10.56,10.56,0,0,1,1-3.05q1.61-3,9-3,5.52,0,7.83,2a6.31,6.31,0,0,1,2.07,5c.08.77.11,1.88.12,3.34v40.27a32.78,32.78,0,0,1-.18,4,9.13,9.13,0,0,1-1.09,3.05c-1,2-4,3-8.86,3s-7.79-1-8.86-3.11a10.29,10.29,0,0,1-1-3,34,34,0,0,1-.18-4Z" transform="translate(-84.68 1023.45)"/><path id="Trazado_16" data-name="Trazado 16" class="cls-2" d="M457.63-962.71l-7.48-.46v15.88a7.83,7.83,0,0,0,1,4.49c.65.92,1.87,1.38,3.68,1.38a35.84,35.84,0,0,1,4.14.18,8.33,8.33,0,0,1,3.05,1.09c1.76,1,2.65,3.57,2.65,7.71q0,7.26-3.23,8.86a10.56,10.56,0,0,1-3.05,1,30.92,30.92,0,0,1-3.85.18q-12,0-18.18-5.41t-6.22-18.3v-17a29.82,29.82,0,0,1-4.72.35,5.31,5.31,0,0,1-4.2-2c-1.11-1.3-1.66-3.53-1.66-6.67a29.14,29.14,0,0,1,.57-6.85,6.23,6.23,0,0,1,1.61-3.05,7,7,0,0,1,4.6-1.5l3.8.46v-11.85a32,32,0,0,1,.18-3.91,7.2,7.2,0,0,1,1.09-2.76c1-1.92,3.95-2.88,8.86-2.88q7.83,0,9.32,4.26a21.49,21.49,0,0,1,.58,5.87v11.27q5.06-.45,7.65-.46a31.89,31.89,0,0,1,3.91.18,9.13,9.13,0,0,1,3.05,1.09c2,1,3,4,3,8.86s-1,7.79-3.1,8.86a10.56,10.56,0,0,1-3,1A33,33,0,0,1,457.63-962.71Z" transform="translate(-84.68 1023.45)"/><path id="Trazado_17" data-name="Trazado 17" class="cls-3" d="M487.78-975.48a31.61,31.61,0,0,1,44.07-.06q9.55,8.92,9.56,22.73a29.9,29.9,0,0,1-4.95,17,31.05,31.05,0,0,1-12,10.94,32.5,32.5,0,0,1-14.67,3.5A31.32,31.32,0,0,1,495-925.14a32.63,32.63,0,0,1-12-11,29,29,0,0,1-4.89-16.52Q478.11-966.5,487.78-975.48Zm14.38,31a12.15,12.15,0,0,0,7.48,2.82,12.57,12.57,0,0,0,7.6-2.87Q521-947.4,521-953t-3.57-8.4a12.31,12.31,0,0,0-7.71-2.76,12,12,0,0,0-7.71,2.88q-3.57,2.87-3.57,8.45t3.69,8.4Z" transform="translate(-84.68 1023.45)"/><g id="Grupo_478" data-name="Grupo 478"><path id="Trazado_21" data-name="Trazado 21" class="cls-5" d="M307.11-996.17a1,1,0,0,1-.07-.15l-5.63-11H293l-5.62,11a.77.77,0,0,0-.07.16v.19h19.85Z" transform="translate(-84.68 1023.45)"/><path id="Trazado_22" data-name="Trazado 22" class="cls-6" d="M287.26-930.31c0,4.23,3,7.65,6.75,7.65h6.35c3.73,0,6.75-3.42,6.75-7.65v-7.76H287.26Z" transform="translate(-84.68 1023.45)"/><path id="Trazado_23" data-name="Trazado 23" class="cls-7" d="M287.26-992.5V-943h19.85v-53.29H287.26Z" transform="translate(-84.68 1023.45)"/><path id="Trazado_24" data-name="Trazado 24" class="cls-8" d="M300.46-1009.24a3.58,3.58,0,0,0-4.71-1.85,3.57,3.57,0,0,0-1.84,1.85l-1,1.88h8.46Z" transform="translate(-84.68 1023.45)"/><rect id="Rectángulo_24" data-name="Rectángulo 24" class="cls-9" x="202.58" y="80.45" width="19.85" height="5.41"/></g></g></svg>